<svg viewBox="0 0 48 48" fill="none" xmlns="http://www.w3.org/2000/svg">
<path fill-rule="evenodd" clip-rule="evenodd" d="M3 36H12.15V41.835H3V36Z" fill="black"/>
<path fill-rule="evenodd" clip-rule="evenodd" d="M12.4799 36.681L18.564 19.377L22.1129 20.625L16.0319 37.929L12.4799 36.681Z" fill="black"/>
<path fill-rule="evenodd" clip-rule="evenodd" d="M7.78501 9.65099L6.32701 14.643C6.32701 14.643 5.44501 16.965 7.60801 17.685C10.044 18.429 28.584 23.937 28.584 23.937L32.757 16.797L7.78501 9.65099V9.65099Z" fill="black"/>
<path fill-rule="evenodd" clip-rule="evenodd" d="M41.1271 14.913C41.4421 14.796 47.8741 11.313 47.8741 11.313C47.3881 10.824 47.1031 10.455 46.3891 10.248L12.4351 0.303007C11.9081 0.144742 11.3552 0.0919265 10.8078 0.147583C10.2605 0.20324 9.72947 0.366276 9.24519 0.627364C8.76091 0.888451 8.33286 1.24247 7.98554 1.66915C7.63822 2.09584 7.37844 2.58682 7.22106 3.11401L6.16806 6.70501C6.16806 6.70501 35.2921 15.237 36.1861 15.363L33.1291 20.757L41.9671 23.832L44.9371 15.066C44.9371 15.063 41.6071 15.063 41.1271 14.913Z" fill="black"/>
<path fill-rule="evenodd" clip-rule="evenodd" d="M5.27703 36.537L4.20903 34.95C10.041 31.356 12.039 21.762 11.979 14.637L13.953 14.619C14.016 22.587 11.775 32.532 5.27703 36.537Z" fill="black"/>
<path fill-rule="evenodd" clip-rule="evenodd" d="M6.087 38.988C6.087 43.923 3.363 47.919 0 47.919V30.063C3.363 30.063 6.087 34.059 6.087 38.988Z" fill="black"/>
</svg>
